<svg width="177" height="20" viewBox="0 0 177 20" fill="none" xmlns="http://www.w3.org/2000/svg">
<path d="M17.71 4.9931L15.87 1.6351C15.801 1.4971 15.709 1.4281 15.594 1.4281C15.525 1.4281 15.456 1.4511 15.387 1.5201L15.272 1.6351C15.134 1.7501 14.996 1.7501 14.812 1.7501H3.05899C2.89799 1.7501 2.75999 1.7501 2.62199 1.6351L2.48399 1.5201C2.43799 1.4511 2.36899 1.4281 2.29999 1.4281C2.18499 1.4281 2.06999 1.4971 2.00099 1.6351L0.18399 4.9931C0.13799 5.0621 0.11499 5.1311 0.11499 5.2001C0.11499 5.3151 0.18399 5.4071 0.29899 5.4761L1.26499 6.0051C1.33399 6.0281 1.40299 6.0511 1.47199 6.0511C1.58699 6.0511 1.67899 5.9821 1.74799 5.8671L1.81699 5.7291C2.69099 4.2571 4.09399 3.6131 5.95699 3.6131H7.08399V15.4351C7.08399 16.6541 6.69299 17.5511 5.51999 17.6201H5.38199C5.15199 17.6201 5.03699 17.7351 5.03699 17.9651V18.6551C5.03699 18.8851 5.15199 19.0001 5.38199 19.0001H12.466C12.673 19.0001 12.811 18.8851 12.811 18.6551V17.9651C12.811 17.7351 12.673 17.6201 12.466 17.6201H12.305C11.132 17.5511 10.741 16.6541 10.741 15.4351V3.6131H11.937C13.8 3.6131 15.18 4.2571 16.054 5.7291L16.123 5.8671C16.215 5.9821 16.307 6.0511 16.422 6.0511C16.468 6.0511 16.537 6.0281 16.606 6.0051L17.572 5.4761C17.71 5.4071 17.779 5.3151 17.779 5.2001C17.779 5.1311 17.756 5.0621 17.71 4.9931Z" fill="#FCFCFC"/>
<path d="M32.9894 17.6201H32.9204C31.7934 17.6201 31.2414 16.6771 31.2414 15.4351V11.4101C31.2184 9.2021 30.6204 7.2011 27.3314 7.2011C25.2154 7.2011 23.9274 8.6731 23.5134 9.4781V0.646097C23.5134 0.600097 23.5134 0.600098 23.4904 0.600098H23.4444C23.3984 0.600098 23.3754 0.623097 23.3294 0.646097C22.7084 1.1061 21.4434 1.9801 19.0054 2.7851C18.7984 2.8541 18.6834 2.9001 18.6834 3.0841V3.8661C18.6834 4.0271 18.7294 4.1421 18.9594 4.1651C20.2244 4.3031 20.3164 5.5681 20.3164 6.8101V15.4351C20.3394 16.6771 19.7644 17.6201 18.6374 17.6201H18.5914C18.3614 17.6201 18.2464 17.7351 18.2464 17.9651V18.6551C18.2464 18.8851 18.3614 19.0001 18.5914 19.0001H25.2844C25.5144 19.0001 25.6294 18.8851 25.6294 18.6551V17.9651C25.6294 17.7351 25.5144 17.6201 25.2844 17.6201H25.2384C24.1114 17.6201 23.5364 16.6771 23.5364 15.4351V10.9731C23.9504 9.9841 25.1924 9.2251 26.3424 9.2251C28.1134 9.2251 27.9984 10.4901 27.9984 11.9621V15.4351C28.0214 16.6771 27.6534 17.6201 26.8024 17.6201H26.7334C26.5264 17.6201 26.3884 17.7351 26.3884 17.9651V18.6551C26.3884 18.8851 26.5264 19.0001 26.7334 19.0001H32.9894C33.1964 19.0001 33.3344 18.8851 33.3344 18.6551V17.9651C33.3344 17.7351 33.1964 17.6201 32.9894 17.6201Z" fill="#FCFCFC"/>
<path d="M36.6832 14.8831L43.3532 11.9621C43.5142 11.9161 43.5602 11.8011 43.5602 11.6861C43.5602 9.9381 41.8582 7.2471 38.8222 7.2471C36.1082 7.2471 33.3482 8.8801 33.3482 13.1351C33.3482 16.4701 35.6942 19.2761 39.5122 19.2761C41.8582 19.2761 43.2612 18.1951 44.1352 16.5851C44.2042 16.4701 44.2732 16.3091 44.2732 16.1941C44.2732 16.1251 44.2502 16.0561 44.1812 16.0101C43.4452 15.5731 43.3992 15.5731 43.2612 15.5731C43.2152 15.5731 43.1232 15.5961 43.0772 15.6651C42.2722 16.8381 41.1222 17.3671 40.1332 17.3671C38.3622 17.3671 37.2122 16.1711 36.6832 14.8831ZM40.1102 11.5941L36.4072 13.4571C36.2232 12.9051 36.2002 12.1461 36.2002 11.6861C36.2002 10.1911 36.9822 9.0641 38.2472 9.0641C39.3052 9.0641 40.1102 10.1221 40.1102 11.5941Z" fill="#FCFCFC"/>
<path d="M58.3641 1.7501H51.2801C51.0501 1.7501 50.9351 1.8651 50.9351 2.0951V2.7851C50.9351 3.0151 51.0501 3.1301 51.2801 3.1301H51.3031C52.5681 3.1301 52.9821 4.0731 52.9821 5.3151V15.4351C52.9821 16.6311 52.5911 17.5511 51.4411 17.6201H51.2801C51.0501 17.6201 50.9351 17.7351 50.9351 17.9651V18.6551C50.9351 18.8851 51.0501 19.0001 51.2801 19.0001H59.0081C65.0341 19.0001 67.6101 15.1591 67.6101 10.3521C67.6101 4.9011 63.6541 1.7501 58.3641 1.7501ZM56.6391 15.3201V3.1301H57.7201C61.8141 3.1301 64.1141 5.7981 64.1141 10.3521C64.1141 14.8601 62.8261 17.5051 58.3411 17.5051C56.6851 17.5051 56.6391 16.5621 56.6391 15.3201Z" fill="#FCFCFC"/>
<path d="M80.5627 14.7451V7.2471C80.5627 7.2011 80.5627 7.2011 80.5397 7.2011H80.4707C80.4477 7.2011 80.4017 7.2241 80.3787 7.2471C79.8957 7.5921 79.3897 8.0061 78.1017 8.5351C77.1357 7.6841 75.8707 7.2011 74.3757 7.2011C71.5927 7.2011 68.9937 8.9721 68.9937 13.2271C68.9937 17.6891 72.0067 19.2991 74.0997 19.2991C76.4457 19.2991 77.3427 17.8041 77.5957 17.1831L77.3427 19.2301C77.3427 19.2761 77.3427 19.2991 77.3657 19.2991H77.4117C77.4807 19.2991 77.5727 19.2761 77.6187 19.2531C78.6537 18.7931 79.5967 18.3791 81.8507 18.3791C82.0807 18.3791 82.1957 18.2641 82.1957 18.0571V17.2981C82.1957 17.1371 82.1497 17.0221 81.9197 16.9991C80.7927 16.8611 80.5857 15.8491 80.5627 14.7451ZM77.3427 11.1341V15.7571C77.3427 15.7571 76.8367 17.2751 75.1347 17.2751C73.2487 17.2751 71.9607 15.4351 71.9607 12.4911C71.9607 10.5821 72.5587 8.7421 74.7897 8.7421C76.5837 8.7421 77.1817 10.2141 77.3427 11.1341Z" fill="#FCFCFC"/>
<path d="M92.3773 11.0881L92.9293 10.7891C93.0673 10.7201 93.1133 10.6511 93.1133 10.5361C93.1133 10.4901 93.0903 10.3981 93.0443 10.3061L91.8943 7.3851C91.8253 7.2011 91.7103 7.1321 91.5033 7.1321H90.9053C90.7213 7.1321 90.6063 7.2011 90.6063 7.3621C90.6063 7.4081 90.6293 7.4541 90.6293 7.5231C90.7213 7.7761 90.7443 8.0061 90.6063 8.0061C90.5833 8.0061 90.5373 7.9831 90.5143 7.9601C90.1003 7.7301 88.8813 7.2241 87.4553 7.2241C85.0403 7.2241 83.5223 8.5351 83.5223 10.3751C83.5223 11.8701 84.1433 13.2271 87.9153 14.3541C89.4563 14.8141 91.3883 15.2281 91.3883 16.4241C91.3883 17.2981 90.6063 17.7351 89.1803 17.7351C87.2943 17.7351 85.4543 16.8841 83.9593 14.6301C83.8903 14.5151 83.7983 14.4461 83.7063 14.4461C83.6373 14.4461 83.5683 14.4691 83.4993 14.4921L82.7863 14.9061C82.6713 14.9751 82.6023 15.0671 82.6023 15.1821C82.6023 15.2511 82.6253 15.3201 82.6713 15.3891L84.6493 19.0921C84.7413 19.2531 84.8563 19.3221 85.0403 19.3221H85.8683C86.0523 19.3451 86.1443 19.2761 86.1443 19.1381C86.1443 19.0921 86.1213 19.0231 86.0983 18.9541C86.0293 18.7471 86.0753 18.6091 86.2133 18.6091C86.2593 18.6091 86.3283 18.6321 86.4203 18.6781C87.2023 19.0691 88.1453 19.2761 89.0883 19.2761C92.0783 19.2761 93.9183 17.6891 93.9183 15.5271C93.9183 12.7441 90.8593 12.0541 88.7433 11.5251C87.4783 11.2031 86.1673 10.7891 86.1673 9.7771C86.1673 8.9031 86.9723 8.6041 87.7773 8.6041C88.8813 8.6041 90.5143 9.2251 91.8943 10.9731C91.9863 11.0881 92.0783 11.1341 92.1933 11.1341C92.2393 11.1341 92.3083 11.1341 92.3773 11.0881Z" fill="#FCFCFC"/>
<path d="M109.357 17.6201H109.288C108.161 17.6201 107.609 16.6771 107.609 15.4351V11.4101C107.586 9.2021 106.988 7.2011 103.699 7.2011C101.583 7.2011 100.295 8.6731 99.8805 9.4781V0.646097C99.8805 0.600097 99.8805 0.600098 99.8575 0.600098H99.8115C99.7655 0.600098 99.7425 0.623097 99.6965 0.646097C99.0755 1.1061 97.8105 1.9801 95.3725 2.7851C95.1655 2.8541 95.0505 2.9001 95.0505 3.0841V3.8661C95.0505 4.0271 95.0965 4.1421 95.3265 4.1651C96.5915 4.3031 96.6835 5.5681 96.6835 6.8101V15.4351C96.7066 16.6771 96.1315 17.6201 95.0045 17.6201H94.9585C94.7285 17.6201 94.6135 17.7351 94.6135 17.9651V18.6551C94.6135 18.8851 94.7285 19.0001 94.9585 19.0001H101.652C101.882 19.0001 101.997 18.8851 101.997 18.6551V17.9651C101.997 17.7351 101.882 17.6201 101.652 17.6201H101.606C100.479 17.6201 99.9035 16.6771 99.9035 15.4351V10.9731C100.318 9.9841 101.56 9.2251 102.71 9.2251C104.481 9.2251 104.366 10.4901 104.366 11.9621V15.4351C104.389 16.6771 104.021 17.6201 103.17 17.6201H103.101C102.894 17.6201 102.756 17.7351 102.756 17.9651V18.6551C102.756 18.8851 102.894 19.0001 103.101 19.0001H109.357C109.564 19.0001 109.702 18.8851 109.702 18.6551V17.9651C109.702 17.7351 109.564 17.6201 109.357 17.6201Z" fill="#FCFCFC"/>
<path d="M110.302 6.8101V14.0551C110.302 17.8501 112.786 19.2761 115.845 19.2761C119.571 19.2761 121.871 16.7921 121.871 13.2731C121.871 8.8111 118.766 7.2011 116.282 7.2011C114.994 7.2011 113.913 7.7071 113.499 8.3281V0.646097C113.499 0.600097 113.499 0.600098 113.476 0.600098H113.43C113.384 0.600098 113.361 0.623097 113.315 0.646097C112.694 1.1061 111.429 1.9801 108.991 2.7851C108.784 2.8541 108.669 2.9001 108.669 3.0841V3.8661C108.669 4.0271 108.715 4.1421 108.945 4.1651C110.21 4.3031 110.302 5.5681 110.302 6.8101ZM113.499 14.5381V9.8231C114.051 9.4091 114.649 9.2251 115.27 9.2251C117.616 9.2251 118.904 11.0651 118.904 14.0091C118.904 15.9181 118.306 17.7811 116.075 17.7811C114.764 17.7811 113.499 16.7921 113.499 14.5381Z" fill="#FCFCFC"/>
<path d="M126.709 7.7071C124.524 8.6731 123.259 10.8351 123.259 13.1121C123.259 13.9631 123.443 14.8141 123.788 15.6421C124.8 17.9191 127.008 19.2761 129.308 19.2761C130.09 19.2761 130.872 19.1151 131.631 18.7701C133.793 17.8041 135.081 15.6651 135.081 13.3651C135.081 12.5371 134.897 11.6861 134.529 10.8581C133.517 8.5811 131.309 7.2241 129.032 7.2241C128.25 7.2241 127.468 7.3851 126.709 7.7071ZM127.399 9.2711C127.698 9.1331 128.02 9.0641 128.319 9.0641C129.722 9.0641 130.964 10.4901 131.677 12.1231C132.068 12.9971 132.321 13.9631 132.321 14.8141C132.321 15.8721 131.93 16.7921 130.941 17.2291C130.619 17.3671 130.32 17.4361 130.021 17.4361C128.595 17.4361 127.376 16.0101 126.64 14.3771C126.249 13.4801 125.996 12.5371 125.996 11.6861C125.996 10.6281 126.387 9.7081 127.399 9.2711Z" fill="#FCFCFC"/>
<path d="M148.035 14.7451V7.2471C148.035 7.2011 148.035 7.2011 148.012 7.2011H147.943C147.92 7.2011 147.874 7.2241 147.851 7.2471C147.368 7.5921 146.862 8.0061 145.574 8.5351C144.608 7.6841 143.343 7.2011 141.848 7.2011C139.065 7.2011 136.466 8.9721 136.466 13.2271C136.466 17.6891 139.479 19.2991 141.572 19.2991C143.918 19.2991 144.815 17.8041 145.068 17.1831L144.815 19.2301C144.815 19.2761 144.815 19.2991 144.838 19.2991H144.884C144.953 19.2991 145.045 19.2761 145.091 19.2531C146.126 18.7931 147.069 18.3791 149.323 18.3791C149.553 18.3791 149.668 18.2641 149.668 18.0571V17.2981C149.668 17.1371 149.622 17.0221 149.392 16.9991C148.265 16.8611 148.058 15.8491 148.035 14.7451ZM144.815 11.1341V15.7571C144.815 15.7571 144.309 17.2751 142.607 17.2751C140.721 17.2751 139.433 15.4351 139.433 12.4911C139.433 10.5821 140.031 8.7421 142.262 8.7421C144.056 8.7421 144.654 10.2141 144.815 11.1341Z" fill="#FCFCFC"/>
<path d="M155.599 9.9151L156.151 6.8101C156.151 6.7871 156.128 6.7871 156.105 6.7871H156.059C156.013 6.7871 155.99 6.8101 155.944 6.8331C155.346 7.2701 153.598 8.1671 151.413 8.5121C151.183 8.5581 151.068 8.6271 151.068 8.8111V9.5931C151.068 9.7541 151.114 9.8691 151.344 9.8921C152.609 10.0301 152.701 11.3181 152.701 12.5371V15.4351C152.701 16.6771 152.149 17.6201 151.022 17.6201H150.976C150.746 17.6201 150.631 17.7351 150.631 17.9651V18.6551C150.631 18.8851 150.746 19.0001 150.976 19.0001H157.669C157.899 19.0001 158.014 18.8851 158.014 18.6551V17.9651C158.014 17.7351 157.899 17.6201 157.669 17.6201H157.623C156.496 17.6201 155.944 16.6771 155.944 15.4351V11.2031C156.266 10.3521 157.186 9.2021 158.244 9.2021C158.865 9.2021 159.325 9.5701 159.325 10.3981C159.325 10.7201 159.302 11.1111 159.118 11.5481C159.095 11.6171 159.072 11.6861 159.072 11.7551C159.072 11.8701 159.141 11.9621 159.279 11.9621C159.348 11.9621 159.417 11.9621 159.486 11.9161L161.648 11.0421C162.2 10.8121 162.246 10.2601 162.246 9.5701C162.246 8.0061 161.073 7.2011 159.647 7.2011C158.014 7.2011 156.427 8.1441 155.599 9.9151Z" fill="#FCFCFC"/>
<path d="M174.404 14.7451V0.646097C174.404 0.600097 174.404 0.600098 174.382 0.600098H174.312C174.29 0.600098 174.243 0.623097 174.22 0.646097C173.599 1.1061 172.311 1.9801 169.896 2.7851C169.689 2.8541 169.551 2.9001 169.551 3.0841V3.8661C169.551 4.0271 169.598 4.1421 169.827 4.1651C171.092 4.3031 171.184 5.5681 171.184 6.8101V8.2821C170.38 7.5691 169.367 7.2011 168.217 7.2011C165.434 7.2011 162.835 8.9721 162.835 13.2271C162.835 17.6891 165.848 19.2991 167.941 19.2991C170.287 19.2991 171.184 17.8041 171.438 17.1831L171.184 19.2301C171.184 19.2761 171.184 19.2991 171.207 19.2991H171.276C171.345 19.2991 171.414 19.2761 171.46 19.2531C172.495 18.7931 173.438 18.3791 175.692 18.3791C175.922 18.3791 176.037 18.2641 176.037 18.0571V17.2981C176.037 17.1371 175.991 17.0221 175.761 16.9991C174.634 16.8611 174.427 15.8491 174.404 14.7451ZM171.184 11.5481V15.3201C171.184 15.3201 170.678 17.2751 168.976 17.2751C167.09 17.2751 165.802 15.4351 165.802 12.4911C165.802 10.5821 166.4 8.9491 168.632 8.9491C170.15 8.9491 171.023 10.1221 171.184 11.5481Z" fill="#FCFCFC"/>
</svg>
